<svg preserveAspectRatio="none" width="100%" height="100%" overflow="visible" style="display: block;" viewBox="0 0 1919 387" fill="none" xmlns="http://www.w3.org/2000/svg">
<g id="HP LOGO GOOTER">
<path id="Vector" d="M753.955 238.601C753.955 269.14 762.848 291.978 780.635 306.981C798.422 321.985 823.51 329.554 855.765 329.554C888.02 329.554 909.922 323.579 925.984 311.761C935.275 304.857 941.514 296.226 945.496 286.268C948.416 293.836 952 300.874 956.646 306.45C969.389 321.852 987.442 329.554 1010.94 329.554C1034.43 329.554 1053.55 319.994 1066.29 300.874L1071.86 325.57H1125.22V86.5709H1059.65V167.565C1047.17 154.155 1030.85 147.516 1010.94 147.516C987.442 147.516 969.256 155.217 956.646 170.353C950.673 177.523 946.293 186.42 943.107 196.643C938.859 185.888 932.886 176.992 924.922 169.822C908.064 154.951 883.773 147.383 851.916 147.383C820.058 147.383 797.493 155.084 780.104 170.486C762.715 185.888 754.087 208.461 754.087 238.336L753.955 238.601ZM1002.97 229.971C1002.97 207.398 1012.4 195.98 1031.25 195.98C1040.94 195.98 1048.1 199.432 1053.01 206.336C1057.79 213.241 1060.31 222.269 1060.31 233.157V244.045C1060.31 255.065 1057.93 263.962 1053.01 270.733C1048.24 277.505 1040.94 280.957 1031.25 280.957C1012.4 280.957 1002.97 269.804 1002.97 247.364V229.838V229.971ZM854.438 189.473C863.597 189.473 870.897 192.129 876.074 197.44C881.251 202.751 883.773 209.788 883.773 218.817H819.926C822.315 199.299 833.863 189.473 854.57 189.473H854.438ZM938.063 249.754C938.328 254.003 938.594 258.385 939.125 262.235H886.295C886.295 269.937 883.773 276.044 878.596 280.691C873.419 285.339 865.322 287.596 854.438 287.596C842.358 287.596 833.465 284.409 827.89 278.036C822.315 271.663 819.527 262.235 819.527 249.754H938.063Z" fill="var(--fill-0, black)"/>
<path id="Vector_2" d="M1796.48 147.648C1765.95 147.648 1742.06 155.35 1724.67 170.752C1713.12 180.976 1705.56 194.519 1701.57 211.249C1699.32 191.465 1690.82 176.328 1675.69 165.972C1658.04 153.756 1634.94 147.648 1606.4 147.648C1575.87 147.648 1551.98 155.35 1534.59 170.752C1522.24 181.639 1514.41 196.245 1510.83 214.436V151.632H1467.82C1468.09 144.595 1467.95 137.823 1467.56 131.184H1510.83V86.7036H1457.87C1454.42 79.1353 1450.3 72.4964 1444.86 67.3181C1426.54 51.3848 1400.39 57.7581 1384.06 72.0981C1371.32 83.517 1362.83 97.5914 1356.59 113.126C1352.74 101.044 1347.3 89.8903 1339.33 80.8614C1325.13 63.8659 1304.16 54.5715 1281.72 55.1026C1277.08 55.5009 1272.43 56.2976 1267.92 57.3598C1268.71 47.0032 1270.17 36.9121 1270.84 32.2649C1271.1 30.6716 1271.24 29.7421 1271.24 29.4766C1271.37 28.5471 1270.71 27.7505 1269.91 27.6177C1268.98 27.6177 1268.18 28.1488 1268.05 28.9455C1268.05 29.211 1267.79 30.5388 1267.52 32.5304C1266.32 39.4349 1264.2 49.6587 1261.55 58.9531C1247.08 63.0692 1233.67 70.372 1221.59 80.8614C1209.51 79.4009 1195.97 77.1437 1185.49 75.152C1184.56 75.0192 1183.76 75.5503 1183.5 76.4798C1183.36 77.4092 1183.89 78.2059 1184.69 78.4714C1193.58 80.5959 1204.73 83.517 1215.35 86.7036C1210.97 90.9525 1206.73 95.4669 1202.74 100.645C1158.94 156.545 1148.98 245.107 1158.14 303.795C1162.52 327.96 1175.66 344.69 1193.32 348.408C1195.84 348.939 1198.36 349.205 1200.88 349.205C1216.42 349.205 1232.08 339.379 1244.16 321.72C1251.59 311.23 1257.43 299.28 1262.48 286.799C1267.39 302.334 1274.95 316.541 1286.24 326.234C1299.64 339.114 1316.63 345.752 1335.61 345.752C1337.07 345.752 1338.53 345.752 1340.13 345.752C1366.68 344.292 1394.42 329.819 1412.6 308.176C1424.81 295.695 1435.96 276.177 1445.26 253.472V325.969H1510.83V263.165C1514.41 281.355 1522.24 295.961 1534.59 306.849C1551.98 322.251 1575.87 329.952 1606.4 329.952C1634.94 329.952 1658.04 323.844 1675.69 311.496C1690.69 301.139 1699.19 286.003 1701.57 266.219C1705.42 283.48 1713.39 297.156 1725.33 307.38C1743.12 322.384 1768.21 329.952 1800.46 329.952C1832.72 329.952 1854.62 323.977 1870.68 312.16C1886.74 300.343 1894.71 283.878 1894.71 262.767H1831.13C1831.13 270.468 1828.61 276.575 1823.43 281.223C1818.25 285.87 1810.15 288.127 1799.27 288.127C1787.19 288.127 1778.3 284.94 1772.72 278.567C1767.15 272.194 1764.36 262.766 1764.36 250.285H1894.84V239.132C1894.84 208.328 1886.48 185.49 1869.62 170.619C1852.76 155.748 1828.47 148.18 1796.62 148.18L1796.48 147.648ZM1339.99 338.715C1321.15 339.777 1304.29 333.67 1291.01 320.923C1278.54 310.168 1270.97 293.571 1266.59 275.911C1274.82 252.012 1279.86 226.253 1283.85 201.954C1285.04 194.253 1286.24 186.818 1287.3 179.515C1287.3 179.117 1287.3 178.718 1287.43 178.32L1284.38 177.922H1284.11L1280.79 177.391C1273.76 225.19 1265.79 279.364 1238.98 317.604C1226.5 335.794 1210.04 344.823 1195.04 341.636C1180.04 338.45 1168.89 323.711 1165.05 302.467C1155.75 243.381 1167.7 156.412 1208.32 104.629C1212.96 98.7864 1217.74 93.6081 1222.92 88.8281C1236.06 93.0769 1246.95 97.4586 1248.67 100.645C1252.52 107.682 1247.48 140.478 1245.09 152.561C1244.95 153.491 1245.48 154.287 1246.41 154.553H1246.68C1247.48 154.553 1248.14 154.022 1248.27 153.225C1251.86 135.566 1260.09 106.487 1266.59 103.566C1274.02 100.247 1304.02 100.911 1318.89 101.84C1319.69 101.84 1320.48 101.176 1320.61 100.38C1320.61 99.4503 1320.08 98.6536 1319.15 98.5208C1301.63 96.2636 1272.7 90.4214 1269.78 84.712C1267.79 80.7286 1267.39 72.8948 1267.65 64.2642C1272.43 63.0693 1277.21 62.2726 1282.12 61.7415C1302.3 60.9448 1321.41 69.5753 1334.42 85.1103C1368.14 122.686 1356.06 202.884 1353.27 218.552C1353 220.41 1354.2 222.137 1355.92 222.402C1357.65 222.668 1359.51 221.473 1359.77 219.747C1361.76 208.328 1368.53 163.449 1359.77 124.014C1365.75 105.956 1374.51 89.6247 1388.71 76.8781C1402.78 64.397 1425.21 58.8204 1440.48 71.9653C1482.02 112.728 1455.34 254.402 1407.82 303.264C1390.7 323.711 1364.68 337.387 1339.99 338.715ZM1251.19 81.3925C1249.2 82.8531 1241.24 82.7203 1231.02 81.7909C1239.78 75.0192 1249.33 69.9737 1259.29 66.5215C1256.9 73.4259 1254.11 79.1353 1251.19 81.3925ZM1641.31 254.667C1641.31 274.849 1630.16 284.94 1607.73 284.94C1585.3 284.94 1574.15 272.592 1574.15 248.028V229.307C1574.15 204.477 1584.9 192.129 1606.4 192.129C1627.9 192.129 1638.66 201.954 1638.66 221.738H1699.72C1699.05 227.049 1698.65 232.626 1698.65 238.601C1698.65 244.576 1699.05 249.622 1699.72 254.8H1641.31V254.667ZM1764.63 218.817C1767.01 199.299 1778.56 189.473 1799.27 189.473C1808.43 189.473 1815.73 192.129 1820.91 197.44C1826.08 202.751 1828.6 209.788 1828.6 218.817H1764.76H1764.63Z" fill="var(--fill-0, black)"/>
<path id="Vector_3" d="M42.3435 308.044C49.3786 320.392 58.9358 330.217 69.6876 336.325C73.537 338.582 77.6519 340.176 81.7668 341.902C88.8019 344.69 95.4389 347.479 99.6865 352.391C102.607 355.844 102.341 359.561 101.678 365.271C101.279 368.988 100.748 372.839 101.678 376.955C103.138 382.93 107.651 386.515 114.288 386.648H114.686C122.518 386.648 128.623 381.868 130.216 374.565C131.013 370.98 130.216 367.661 129.154 364.209C128.756 362.615 128.225 360.756 127.96 358.765C127.429 355.18 127.96 345.221 130.482 343.23C130.615 343.23 131.146 342.699 132.606 343.495C133.402 343.894 134.199 344.823 134.995 346.416L135.526 347.744C136.19 349.205 136.853 350.931 138.048 352.391C140.437 355.445 144.287 357.304 148.534 357.437C154.109 357.57 157.295 355.445 159.021 353.586C163.268 348.939 163.135 341.769 162.605 337.919L162.206 334.997C161.675 331.147 161.012 327.429 162.074 324.11C162.87 321.454 164.463 318.799 166.188 316.143C167.516 314.019 168.843 311.761 169.905 309.371C174.551 303.662 178.799 297.421 182.515 291.048C186.365 300.077 191.011 308.442 196.718 315.878C193.798 321.587 195.391 328.89 200.435 333.139C203.223 335.529 206.408 337.122 209.328 338.715C212.912 340.574 216.364 342.433 218.753 345.089L219.948 346.416C223.797 350.665 227.779 355.18 234.682 357.171C237.469 357.968 240.257 358.366 243.044 358.366C248.619 358.366 254.061 356.773 258.84 353.852C260.831 352.657 262.689 351.329 264.548 349.869C267.866 347.346 271.185 344.956 274.901 343.628C282.866 340.84 287.644 334.865 292.157 329.155C294.414 326.234 296.67 323.579 299.06 321.321L301.582 319.197C306.626 314.815 311.67 310.301 314.988 304.326C315.652 303.131 315.917 302.069 316.05 300.874C323.218 290.915 328.926 280.028 333.572 268.476V325.172H399.144V262.368C402.728 280.559 410.56 295.164 422.905 306.052C440.293 321.454 464.186 329.155 494.716 329.155C523.255 329.155 546.351 323.047 564.006 310.699C572.103 305.123 578.209 298.085 582.589 289.72V325.172H648.162V287.596L670.86 265.555L707.363 325.172H781.83L715.991 221.34L780.237 151.101H703.779L648.162 217.622V86.3054H582.589V186.685C578.209 178.453 572.103 171.416 564.006 165.839C546.351 153.624 523.255 147.516 494.716 147.516C464.186 147.516 440.293 155.217 422.905 170.619C410.56 181.507 402.728 196.112 399.144 214.303V151.499H352.421C352.155 144.196 351.624 137.425 350.96 131.051H399.277V86.5709H339.412C335.43 78.4715 330.651 71.8326 324.811 67.0526C313.794 58.1565 299.723 55.3682 282.335 58.9532C258.574 67.9821 245.832 87.2348 238.796 109.276C232.425 91.0853 220.744 79.7993 204.55 77.1437C188.887 74.4882 170.702 81.2598 154.507 95.3342C147.207 74.6209 134.066 61.476 118.801 57.4927C90.793 50.1899 53.6263 73.6915 33.981 142.736C22.6982 182.967 19.3797 237.273 33.45 278.965C31.4589 289.056 38.3613 301.139 42.2108 307.778L42.3435 308.044ZM462.726 229.307C462.726 204.477 473.478 192.129 494.982 192.129C516.485 192.129 527.237 201.955 527.237 221.738H582.855V254.667H529.759C529.759 274.849 518.609 284.94 496.176 284.94C473.744 284.94 462.593 272.592 462.593 248.028V229.307H462.726ZM117.341 64.1315C144.685 71.3015 164.197 112.463 148.8 177.523C148.402 179.25 149.463 181.108 151.322 181.507C152.384 181.772 153.313 181.507 153.977 180.843C154.507 180.445 155.038 179.781 155.304 179.117C155.569 178.187 155.702 177.391 155.835 176.461C162.472 146.719 162.074 121.757 156.897 102.371C172.029 88.1642 189.152 81.3926 203.753 83.7826C232.292 88.5626 244.239 125.607 235.611 182.967C235.345 184.826 236.54 186.42 238.398 186.685C238.531 186.685 238.796 186.685 238.929 186.685C240.522 186.685 241.982 185.49 242.248 183.897C245.964 159.466 245.964 138.62 242.513 121.89C248.088 97.0603 259.636 74.8865 284.591 65.4593C299.458 62.4054 311.67 64.6626 320.962 72.3637C338.085 86.3054 346.713 118.836 346.58 168.495C343.793 213.506 337.023 260.908 312.864 295.563C312.201 295.43 311.537 295.031 311.006 295.031C307.82 294.766 304.104 295.43 299.989 297.023C294.281 299.28 288.706 302.865 283.927 306.185L283.131 306.716C281.804 307.513 280.344 308.176 278.883 308.84C272.379 311.629 264.415 313.222 256.583 314.683C252.999 315.346 249.415 316.01 246.23 316.807C241.982 317.736 238 318.799 234.018 318.799C230.301 318.799 226.054 317.604 221.408 314.948L220.479 314.417C217.824 312.824 214.903 311.23 211.718 310.434C207.603 309.371 204.417 310.035 201.895 311.496C195.789 303.264 190.878 293.836 187.161 283.878C195.125 268.609 200.435 252.941 202.824 240.327C203.09 238.468 201.895 236.742 200.17 236.477C198.311 236.211 196.586 237.406 196.32 239.132C193.4 255.464 184.639 277.903 171.233 297.156C170.834 296.226 170.436 295.164 169.905 294.235C165.658 286.534 153.446 284.409 146.278 287.596C143.888 288.658 141.897 290.119 139.774 291.446C133.933 295.297 130.747 297.289 125.305 293.836C123.314 292.641 121.721 290.783 119.73 288.393C117.606 286.003 115.35 283.347 112.031 281.754C101.147 276.31 90.793 288.525 85.6162 294.766C83.4924 297.289 81.3686 299.811 78.8466 299.811C77.5192 299.811 76.1918 299.148 74.9972 297.953C72.4751 295.297 71.4132 291.712 70.2186 287.861C69.2894 284.675 68.2275 281.355 66.3692 278.301C63.9799 274.451 60.1304 270.999 56.0156 269.007C49.5114 265.82 43.1399 266.617 38.4941 270.999C27.0786 231.564 30.5298 182.038 40.8834 144.727C59.334 80.0648 92.7841 57.6254 117.606 64.1315H117.341Z" fill="var(--fill-0, black)"/>
<path id="Vector_4" d="M228.443 296.359C229.903 297.023 231.496 297.554 233.089 297.952C235.743 298.616 238.266 298.749 240.389 298.749C240.655 298.749 241.053 298.749 241.318 298.749C244.239 298.749 247.557 298.351 250.212 296.226C252.469 294.367 253.53 291.579 253.663 287.861C253.663 286.799 253.663 285.339 253.132 283.878C252.601 282.417 251.539 281.355 250.876 280.691C250.079 279.895 249.283 279.231 248.486 278.567C247.823 278.036 247.159 277.505 246.628 276.974C245.699 276.044 245.035 275.115 245.035 274.318C245.035 273.92 245.168 273.256 245.301 272.459L245.566 271.53C246.363 267.945 246.23 261.837 242.38 259.447C240.655 258.385 237.735 257.721 233.752 260.908C232.823 261.704 231.629 262.501 230.301 263.43C223.797 268.078 215.833 273.92 215.7 280.824C215.7 284.276 217.16 287.729 219.948 290.517C222.071 292.641 224.726 294.5 228.31 296.094L228.443 296.359Z" fill="var(--fill-0, black)"/>
</g>
</svg>
