<svg preserveAspectRatio="xMidYMid meet" overflow="visible" style="display: block;" viewBox="0 0 1868 366" fill="none" xmlns="http://www.w3.org/2000/svg">
<g id="LOGO WICKED NICE" clip-path="url(#clip0_0_4)">
<path id="Vector" d="M743.347 208.719C743.347 238.889 752.115 261.451 769.652 276.274C787.188 291.097 811.923 298.574 843.725 298.574C875.526 298.574 897.12 292.671 912.955 280.996C922.116 274.175 928.267 265.649 932.193 255.811C935.073 263.288 938.606 270.24 943.186 275.749C955.75 290.965 973.549 298.574 996.713 298.574C1019.88 298.574 1038.72 289.129 1051.29 270.24L1056.78 294.638H1109.39V58.5254H1044.74V138.541C1032.44 125.293 1016.34 118.734 996.713 118.734C973.549 118.734 955.619 126.342 943.186 141.296C937.297 148.379 932.979 157.168 929.838 167.269C925.65 156.643 919.761 147.855 911.908 140.771C895.288 126.08 871.338 118.603 839.929 118.603C808.52 118.603 786.272 126.211 769.128 141.427C751.984 156.643 743.478 178.943 743.478 208.457L743.347 208.719ZM988.86 200.193C988.86 177.894 998.152 166.613 1016.74 166.613C1026.29 166.613 1033.36 170.023 1038.2 176.844C1042.91 183.665 1045.4 192.585 1045.4 203.341V214.098C1045.4 224.985 1043.04 233.774 1038.2 240.464C1033.49 247.153 1026.29 250.564 1016.74 250.564C998.152 250.564 988.86 239.545 988.86 217.377V200.062V200.193ZM842.416 160.185C851.446 160.185 858.644 162.809 863.748 168.056C868.852 173.303 871.338 180.255 871.338 189.175H808.39C810.745 169.892 822.131 160.185 842.547 160.185H842.416ZM924.865 219.738C925.126 223.936 925.388 228.264 925.912 232.068H873.825C873.825 239.676 871.338 245.71 866.234 250.302C861.13 254.893 853.147 257.123 842.416 257.123C830.507 257.123 821.738 253.974 816.242 247.678C810.745 241.382 807.997 232.068 807.997 219.738H924.865Z" fill="var(--fill-0, black)"/>
<path id="Vector_2" d="M1771.21 118.865C1741.11 118.865 1717.55 126.473 1700.4 141.69C1689.02 151.79 1681.56 165.17 1677.63 181.698C1675.41 162.153 1667.03 147.199 1652.11 136.967C1634.71 124.899 1611.94 118.865 1583.8 118.865C1553.7 118.865 1530.14 126.473 1513 141.69C1500.83 152.446 1493.11 166.875 1489.57 184.846V122.801H1447.17C1447.43 115.848 1447.3 109.158 1446.91 102.6H1489.57V58.6565H1437.35C1433.95 51.1796 1429.89 44.6209 1424.53 39.5052C1406.47 23.7643 1380.69 30.0606 1364.59 44.2274C1352.03 55.5084 1343.65 69.4128 1337.5 84.7601C1333.7 72.8233 1328.34 61.8047 1320.49 52.8849C1306.48 36.0946 1285.81 26.9125 1263.69 27.4372C1259.11 27.8307 1254.53 28.6177 1250.08 29.6671C1250.86 19.4356 1252.3 9.46635 1252.96 4.87527C1253.22 3.30118 1253.35 2.38296 1253.35 2.12061C1253.48 1.2024 1252.83 0.415354 1252.04 0.28418C1251.13 0.28418 1250.34 0.808877 1250.21 1.59592C1250.21 1.85827 1249.95 3.17001 1249.69 5.13761C1248.51 11.9587 1246.41 22.059 1243.8 31.2412C1229.53 35.3076 1216.31 42.5222 1204.4 52.8849C1192.5 51.442 1179.15 49.212 1168.81 47.2444C1167.89 47.1132 1167.11 47.6379 1166.84 48.5562C1166.71 49.4744 1167.24 50.2614 1168.02 50.5238C1176.79 52.6225 1187.78 55.5084 1198.25 58.6565C1193.93 62.8541 1189.75 67.314 1185.82 72.4298C1142.63 127.654 1132.82 215.147 1141.85 273.126C1146.17 296.999 1159.12 313.527 1176.53 317.2C1179.02 317.725 1181.5 317.987 1183.99 317.987C1199.3 317.987 1214.74 308.28 1226.65 290.834C1233.98 280.471 1239.74 268.666 1244.71 256.336C1249.55 271.683 1257.01 285.718 1268.14 295.294C1281.36 308.018 1298.11 314.577 1316.82 314.577C1318.26 314.577 1319.7 314.577 1321.27 314.577C1347.45 313.134 1374.8 298.836 1392.73 277.454C1404.77 265.124 1415.76 245.842 1424.92 223.411V295.032H1489.57V232.987C1493.11 250.957 1500.83 265.387 1513 276.143C1530.14 291.359 1553.7 298.967 1583.8 298.967C1611.94 298.967 1634.71 292.933 1652.11 280.734C1666.9 270.502 1675.28 255.548 1677.63 236.004C1681.43 253.056 1689.28 266.567 1701.06 276.667C1718.6 291.49 1743.33 298.967 1775.13 298.967C1806.93 298.967 1828.53 293.064 1844.36 281.39C1860.2 269.715 1868.05 253.45 1868.05 232.593H1805.36C1805.36 240.201 1802.88 246.235 1797.77 250.826C1792.67 255.417 1784.69 257.647 1773.95 257.647C1762.05 257.647 1753.28 254.499 1747.78 248.203C1742.28 241.906 1739.54 232.593 1739.54 220.263H1868.18V209.244C1868.18 178.812 1859.94 156.25 1843.32 141.558C1826.7 126.867 1802.75 119.39 1771.34 119.39L1771.21 118.865ZM1321.14 307.624C1302.56 308.674 1285.94 302.64 1272.85 290.047C1260.55 279.422 1253.09 263.025 1248.77 245.579C1256.88 221.968 1261.86 196.52 1265.78 172.515C1266.96 164.907 1268.14 157.562 1269.19 150.347C1269.19 149.954 1269.19 149.56 1269.32 149.166L1266.31 148.773H1266.04L1262.77 148.248C1255.84 195.471 1247.98 248.99 1221.55 286.768C1209.25 304.739 1193.02 313.658 1178.23 310.51C1163.44 307.362 1152.45 292.802 1148.65 271.814C1139.49 213.442 1151.27 127.523 1191.32 76.365C1195.9 70.5934 1200.61 65.4776 1205.71 60.7553C1218.67 64.9529 1229.4 69.2816 1231.1 72.4298C1234.9 79.382 1229.92 111.782 1227.57 123.719C1227.44 124.637 1227.96 125.424 1228.88 125.686H1229.14C1229.92 125.686 1230.58 125.162 1230.71 124.375C1234.24 106.929 1242.36 78.2014 1248.77 75.3156C1256.1 72.0363 1285.68 72.6921 1300.33 73.6104C1301.12 73.6104 1301.9 72.9545 1302.03 72.1674C1302.03 71.2492 1301.51 70.4622 1300.59 70.331C1283.32 68.1011 1254.79 62.3294 1251.91 56.6889C1249.95 52.7537 1249.55 45.0145 1249.82 36.4882C1254.53 35.3076 1259.24 34.5206 1264.08 33.9959C1283.97 33.2088 1302.82 41.7351 1315.64 57.0825C1348.89 94.2046 1336.98 173.434 1334.23 188.912C1333.97 190.749 1335.14 192.454 1336.85 192.716C1338.55 192.979 1340.38 191.798 1340.64 190.093C1342.6 178.812 1349.28 134.475 1340.64 95.5164C1346.53 77.6767 1355.17 61.5424 1369.17 48.9497C1383.04 36.6193 1405.16 31.11 1420.21 44.0962C1461.17 84.3666 1434.87 224.329 1388.02 272.601C1371.13 292.802 1345.48 306.313 1321.14 307.624ZM1233.59 53.4096C1231.63 54.8525 1223.77 54.7213 1213.7 53.8031C1222.33 47.1132 1231.76 42.1286 1241.57 38.7181C1239.22 45.5392 1236.47 51.1796 1233.59 53.4096ZM1618.22 224.591C1618.22 244.53 1607.22 254.499 1585.11 254.499C1562.99 254.499 1552 242.3 1552 218.033V199.537C1552 175.008 1562.6 162.809 1583.8 162.809C1605 162.809 1615.6 172.515 1615.6 192.06H1675.8C1675.15 197.307 1674.75 202.817 1674.75 208.719C1674.75 214.622 1675.15 219.607 1675.8 224.723H1618.22V224.591ZM1739.8 189.175C1742.15 169.892 1753.54 160.185 1773.95 160.185C1782.98 160.185 1790.18 162.809 1795.29 168.056C1800.39 173.302 1802.88 180.255 1802.88 189.175H1739.93H1739.8Z" fill="var(--fill-0, black)"/>
<path id="Vector_3" d="M18.5168 285.604C25.6784 298.209 35.4074 308.238 46.3526 314.473C50.2712 316.777 54.4601 318.404 58.649 320.166C65.8106 323.012 72.5669 325.858 76.8909 330.873C79.8636 334.397 79.5934 338.192 78.9177 344.02C78.5124 347.815 77.9719 351.746 78.9177 355.947C80.4041 362.047 84.9984 365.706 91.7546 365.842H92.16C100.132 365.842 106.348 360.962 107.97 353.508C108.78 349.848 107.97 346.46 106.889 342.936C106.483 341.309 105.943 339.412 105.673 337.379C105.132 333.719 105.673 323.554 108.24 321.521C108.375 321.521 108.916 320.979 110.402 321.792C111.213 322.199 112.023 323.147 112.834 324.774L113.375 326.129C114.05 327.62 114.726 329.382 115.942 330.873C118.374 333.99 122.293 335.888 126.617 336.023C132.292 336.159 135.535 333.99 137.292 332.093C141.616 327.349 141.481 320.03 140.94 316.099L140.535 313.118C139.994 309.187 139.319 305.392 140.4 302.004C141.21 299.293 142.832 296.582 144.589 293.871C145.94 291.703 147.291 289.399 148.372 286.959C153.102 281.131 157.426 274.761 161.209 268.255C165.128 277.471 169.857 286.01 175.667 293.6C172.695 299.428 174.316 306.883 179.451 311.22C182.289 313.66 185.532 315.286 188.504 316.913C192.153 318.81 195.666 320.708 198.098 323.418L199.314 324.774C203.233 329.111 207.287 333.719 214.313 335.752C217.151 336.566 219.989 336.972 222.826 336.972C228.501 336.972 234.042 335.346 238.906 332.364C240.933 331.144 242.825 329.789 244.716 328.298C248.095 325.723 251.473 323.283 255.256 321.928C263.364 319.081 268.228 312.982 272.823 307.154C275.12 304.172 277.417 301.461 279.849 299.157L282.416 296.989C287.551 292.516 292.686 287.908 296.064 281.808C296.74 280.589 297.01 279.504 297.145 278.285C304.442 268.119 310.252 257.005 314.982 245.213V303.088H381.733V238.979C385.382 257.547 393.354 272.456 405.921 283.57C423.622 299.293 447.945 307.154 479.024 307.154C508.076 307.154 531.587 300.919 549.559 288.314C557.802 282.622 564.017 275.438 568.477 266.899V303.088H635.228V264.731L658.335 242.232L695.494 303.088H771.3L704.277 197.098L769.678 125.398H691.846L635.228 193.303V59.256H568.477V161.722C564.017 153.319 557.802 146.135 549.559 140.443C531.587 127.973 508.076 121.739 479.024 121.739C447.945 121.739 423.622 129.6 405.921 145.322C393.354 156.436 385.382 171.345 381.733 189.914V125.805H334.169C333.899 118.35 333.359 111.438 332.683 104.932H381.869V59.5271H320.927C316.873 51.2593 312.009 44.4824 306.063 39.6031C294.848 30.522 280.525 27.6758 262.823 31.3353C238.636 40.5518 225.664 60.2047 218.502 82.704C212.016 64.1353 200.125 52.6146 183.64 49.9039C167.695 47.1932 149.183 54.1056 132.698 68.4725C125.266 47.3287 111.888 33.9105 96.3489 29.8444C67.8375 22.3898 30.0024 46.3799 10.0039 116.859C-1.48179 157.927 -4.85992 213.362 9.46336 255.921C7.43648 266.222 14.463 278.556 18.3816 285.332L18.5168 285.604ZM446.458 205.23C446.458 179.884 457.404 167.279 479.294 167.279C501.184 167.279 512.129 177.309 512.129 197.504H568.747V231.117H514.697C514.697 251.719 503.346 262.02 480.51 262.02C457.674 262.02 446.323 249.415 446.323 224.341V205.23H446.458ZM94.8625 36.6212C122.698 43.9403 142.562 85.9569 126.887 152.37C126.482 154.132 127.563 156.03 129.455 156.436C130.536 156.707 131.481 156.436 132.157 155.759C132.698 155.352 133.238 154.674 133.508 153.997C133.779 153.048 133.914 152.235 134.049 151.286C140.805 120.926 140.4 95.4445 135.13 75.656C150.534 61.1535 167.965 54.2411 182.829 56.6808C211.881 61.5601 224.042 99.3751 215.259 157.927C214.989 159.825 216.205 161.451 218.097 161.722C218.232 161.722 218.502 161.722 218.637 161.722C220.259 161.722 221.745 160.502 222.015 158.876C225.799 133.937 225.799 112.658 222.286 95.58C227.961 70.2345 239.717 47.5998 265.12 37.9766C280.254 34.8592 292.686 37.1634 302.145 45.0245C319.576 59.256 328.359 92.4627 328.224 143.154C325.386 189.101 318.495 237.488 293.902 272.863C293.226 272.727 292.551 272.321 292.01 272.321C288.767 272.05 284.984 272.727 280.795 274.354C274.985 276.658 269.309 280.318 264.445 283.706L263.634 284.248C262.283 285.061 260.796 285.739 259.31 286.417C252.689 289.263 244.581 290.89 236.609 292.38C232.961 293.058 229.312 293.736 226.069 294.549C221.745 295.498 217.691 296.582 213.638 296.582C209.854 296.582 205.53 295.362 200.801 292.651L199.855 292.109C197.152 290.483 194.18 288.856 190.937 288.043C186.748 286.959 183.505 287.637 180.937 289.127C174.722 280.724 169.722 271.101 165.938 260.936C174.046 245.349 179.451 229.356 181.883 216.479C182.153 214.582 180.937 212.82 179.181 212.549C177.289 212.278 175.532 213.498 175.262 215.26C172.289 231.931 163.371 254.837 149.723 274.489C149.318 273.541 148.913 272.456 148.372 271.508C144.048 263.646 131.617 261.478 124.32 264.731C121.888 265.815 119.861 267.306 117.699 268.661C111.753 272.592 108.51 274.625 102.97 271.101C100.943 269.881 99.3217 267.984 97.2948 265.544C95.1328 263.104 92.8356 260.394 89.4575 258.767C78.3772 253.21 67.8375 265.68 62.5676 272.05C60.4056 274.625 58.2436 277.2 55.6762 277.2C54.3249 277.2 52.9737 276.523 51.7576 275.303C49.1902 272.592 48.1092 268.932 46.8931 265.002C45.9472 261.749 44.8662 258.36 42.9744 255.243C40.5422 251.313 36.6235 247.789 32.4347 245.756C25.8135 242.503 19.3275 243.316 14.5981 247.789C2.97735 207.534 6.49061 156.978 17.0304 118.892C35.8128 52.8857 69.8643 29.9799 95.1328 36.6212H94.8625Z" fill="var(--fill-0, black)"/>
</g>
<defs>
<clipPath id="clip0_0_4">
<rect width="1868" height="366" fill="white"/>
</clipPath>
</defs>
</svg>
