<svg preserveAspectRatio="none" width="100%" height="100%" overflow="visible" style="display: block;" viewBox="0 0 402.907 188.993" fill="none" xmlns="http://www.w3.org/2000/svg">
<g id="monogramB 3">
<path id="Vector" d="M340.954 12.9159C332.927 20.0823 327.576 28.9153 323.647 38.6649C321.222 31.0819 317.794 24.0821 312.778 18.4157C303.748 7.74944 290.538 1.74967 276.492 2.24965C257.011 3.91625 240.373 13.4992 226.829 30.7485C222.397 36.415 218.468 42.7481 215.124 49.3311C212.866 29.9986 207.432 16.9991 198.736 9.91602C191.797 4.33291 182.934 2.58297 171.982 4.83289C157.016 10.4993 148.99 22.5822 144.558 36.415C140.545 24.9988 133.188 17.9157 122.987 16.2491C113.122 14.6658 101.667 18.9157 91.4671 27.7487C86.8687 14.6658 78.5915 6.41616 68.9766 3.91625C51.2517 -0.583569 27.8414 14.0825 15.4674 57.4142C7.10659 87.0797 5.51804 128.995 20.7347 155.827C28.5103 169.493 39.881 178.576 54.8468 182.659C57.4387 183.076 59.9469 183.326 62.3715 183.326C82.8555 183.326 98.741 167.91 109.108 150.494C113.456 160.66 119.643 170.076 127.669 175.993C134.358 180.993 141.632 183.493 149.575 183.493C154.09 183.493 158.855 182.659 163.872 180.993C179.256 173.993 190.041 162.993 197.733 149.911C197.984 152.744 198.318 155.494 198.736 158.077C201.495 173.243 209.773 183.743 220.892 186.076C222.481 186.409 224.07 186.576 225.658 186.576C235.44 186.576 245.306 180.409 252.914 169.326C257.596 162.743 261.275 155.327 264.452 147.411C267.546 157.16 272.311 166.077 279.418 172.16C287.863 180.243 298.564 184.409 310.437 184.409C311.356 184.409 312.276 184.409 313.279 184.409C330.001 183.493 347.475 174.41 358.929 160.827C387.858 131.161 409.261 39.0815 379.246 9.83269C367.708 -0.0835897 351.237 3.83292 340.954 12.8326V12.9159ZM313.029 180.326C301.156 180.993 290.538 177.159 282.177 169.243C274.318 162.493 269.552 152.077 266.793 140.994C271.977 125.995 275.154 109.829 277.662 94.5794C278.415 89.7462 279.167 85.0797 279.836 80.4966C279.836 80.2466 279.836 79.9966 279.92 79.7466L277.997 79.4966H277.83L275.739 79.1633C271.308 109.162 266.292 143.161 249.403 167.16C241.544 178.576 231.176 184.243 221.729 182.243C212.281 180.243 205.258 170.993 202.833 157.577C196.981 120.495 204.505 65.9138 230.089 33.4151C242.881 17.1657 258.6 8.08276 276.743 6.58282C289.451 5.99951 301.491 11.4993 309.684 21.2489C330.921 44.8313 323.312 95.1627 321.557 104.996C321.389 106.162 322.142 107.246 323.229 107.412C324.316 107.662 325.486 106.829 325.653 105.746C326.908 98.5792 331.172 70.4137 325.653 45.6646C329.416 34.3317 334.934 24.0821 343.88 16.0824C352.742 8.24942 366.872 4.74955 376.571 12.9992C402.74 38.5816 385.935 127.495 356.003 158.16C345.218 170.993 328.831 179.493 313.279 180.409L313.029 180.326ZM130.094 172.743C121.9 166.577 115.63 156.577 111.617 145.911C116.633 136.328 119.977 126.495 121.482 118.495C121.65 117.328 120.897 116.245 119.81 116.079C118.64 115.829 117.553 116.662 117.386 117.745C113.122 141.244 89.9622 184.743 55.7665 178.576C42.0548 174.826 31.5202 166.41 24.3299 153.744C9.69844 127.995 11.3706 87.3297 19.4806 58.4975C31.0185 17.9157 52.0877 3.83292 67.8061 7.99943C85.0293 12.4993 97.3197 38.3316 87.6212 79.1633C87.3703 80.2466 88.0392 81.4132 89.2097 81.6632C89.8786 81.8299 90.4638 81.6632 90.9655 81.2466C91.2999 80.9966 91.6344 80.5799 91.8016 80.1633C91.9688 79.58 92.0524 79.08 92.136 78.4967C96.3164 59.8307 96.0656 44.1647 92.8049 31.9985C102.336 23.1655 113.122 18.8323 122.319 20.3323C140.294 23.3322 147.819 46.5812 142.384 82.5798C142.217 83.7465 142.97 84.7464 144.14 84.9131C144.224 84.9131 144.391 84.9131 144.475 84.9131C145.478 84.9131 146.398 84.1631 146.565 83.1631C148.906 67.9137 148.906 54.7476 146.732 44.248C150.244 28.6653 157.518 14.7492 173.236 8.83273C182.6 6.91614 190.292 8.33275 196.144 13.1659C204.84 20.2489 210.023 34.9984 211.696 56.8309C199.656 84.1631 195.643 116.329 197.231 142.911C189.874 157.577 178.921 169.743 162.45 177.326C150.411 181.326 139.625 179.826 130.261 172.826L130.094 172.743Z" fill="var(--fill-0, black)"/>
</g>
</svg>
