<svg preserveAspectRatio="none" width="100%" height="100%" overflow="visible" style="display: block;" viewBox="0 0 232 101" fill="none" xmlns="http://www.w3.org/2000/svg">
<g id="MONOGRAM DOPLNKOVY - mezi foto" clip-path="url(#clip0_0_19)">
<path id="Vector" d="M112.943 3.54532C109.573 0.805904 105.096 -0.059176 99.7518 1.0462C90.701 4.45846 86.5607 12.4845 84.4906 21.4717C85.6941 27.5272 85.6941 35.1207 84.3943 43.9157C84.298 44.4924 83.8166 44.925 83.1907 44.925C83.1426 44.925 83.0463 44.925 82.9981 44.925C82.3241 44.8288 81.8909 44.204 81.9871 43.5793C85.1164 22.8174 80.8317 9.40864 70.4329 7.67848C65.089 6.8134 58.8786 9.26446 53.4385 14.4069C55.3161 21.4236 55.5086 30.4589 53.0533 41.2243C52.9571 41.5608 52.9089 41.8491 52.8608 42.1855C52.8126 42.4739 52.6201 42.6661 52.3793 42.8103C52.0905 43.0026 51.7535 43.1467 51.4165 43.0506C50.7906 42.9064 50.3573 42.2336 50.5018 41.6088C56.0863 18.0594 49.0093 3.11278 39.0919 0.565604C30.0411 -1.83739 17.9091 6.3328 11.2173 29.738C6.54743 46.3667 5.63272 69.772 14.0096 84.6705C18.1498 91.9757 24.2158 96.8297 32.1112 98.9924C51.7535 102.549 65.1372 77.4615 67.5925 63.9086C67.6887 63.2358 68.3627 62.8033 68.9886 62.9474C69.6626 63.0436 70.0959 63.6683 69.9515 64.3412C69.133 68.9549 67.1592 74.5779 64.2706 80.1048C66.5815 86.3046 70.1922 92.0718 74.9102 95.5801C80.3021 99.5691 86.5126 100.482 93.4451 98.1754C102.929 93.8019 109.236 86.7852 113.473 78.3266C112.558 62.9955 114.869 44.4444 121.801 28.6807C120.838 16.089 117.902 7.58236 112.847 3.49726L112.943 3.54532Z" fill="var(--fill-0, black)"/>
<path id="Vector_2" d="M198.011 5.22727C192.908 9.79297 189.731 15.7524 187.516 22.2886C190.694 36.5143 188.286 52.7586 187.516 56.9398C187.42 57.6126 186.746 58.0452 186.12 57.901C185.446 57.8049 185.013 57.1801 185.157 56.5073C186.168 50.8362 190.549 21.808 178.321 8.20699C173.603 2.58397 166.67 -0.587986 159.353 -0.251567C148.906 0.661573 139.855 5.85205 132.489 15.2237C117.757 34.0152 113.424 65.4945 116.794 86.8331C118.191 94.5707 122.283 99.8573 127.675 101.059C133.115 102.26 139.133 98.9923 143.61 92.36C153.335 78.5187 156.223 58.9583 158.775 41.6567L159.978 41.849H160.171L161.182 42.0412C161.182 42.1854 161.182 42.2815 161.134 42.4257C160.749 45.0209 160.315 47.7603 159.882 50.5478C158.486 59.2947 156.657 68.5703 153.672 77.2211C155.309 83.8534 158.101 89.8609 162.482 93.6576C167.296 98.2233 173.41 100.434 180.247 100.05C189.201 99.569 198.637 94.6669 204.848 87.2176C222.083 69.5315 231.759 18.2515 216.691 3.49711C211.154 -1.30889 203.018 0.757693 197.915 5.27533L198.011 5.22727Z" fill="var(--fill-0, black)"/>
</g>
<defs>
<clipPath id="clip0_0_19">
<rect width="232" height="101" fill="white"/>
</clipPath>
</defs>
</svg>
