<svg preserveAspectRatio="none" width="100%" height="100%" overflow="visible" style="display: block;" viewBox="0 0 401.869 188.993" fill="none" xmlns="http://www.w3.org/2000/svg">
<g id="monogramB 1">
<path id="Vector" d="M340.075 12.9159C332.07 20.0823 326.732 28.9153 322.813 38.6649C320.395 31.0819 316.975 24.0821 311.972 18.4157C302.966 7.74944 289.789 1.74967 275.78 2.24965C256.349 3.91625 239.754 13.4992 226.244 30.7485C221.825 36.415 217.905 42.7481 214.569 49.3311C212.318 29.9986 206.897 16.9991 198.224 9.91602C191.303 4.33291 182.463 2.58297 171.539 4.83289C156.611 10.4993 148.606 22.5822 144.186 36.415C140.183 24.9988 132.845 17.9157 122.671 16.2491C112.83 14.6658 101.406 18.9157 91.2317 27.7487C86.6451 14.6658 78.3892 6.41616 68.7991 3.91625C51.1199 -0.583569 27.7699 14.0825 15.4278 57.4142C7.08856 87.0797 5.5041 128.995 20.6816 155.827C28.4371 169.493 39.7785 178.576 54.7057 182.659C57.2909 183.076 59.7927 183.326 62.2111 183.326C82.6423 183.326 98.4869 167.91 108.828 150.494C113.164 160.66 119.335 170.076 127.341 175.993C134.012 180.993 141.267 183.493 149.19 183.493C153.693 183.493 158.446 182.659 163.45 180.993C178.794 173.993 189.552 162.993 197.224 149.911C197.474 152.744 197.807 155.494 198.224 158.077C200.976 173.243 209.232 183.743 220.323 186.076C221.908 186.409 223.492 186.576 225.077 186.576C234.834 186.576 244.674 180.409 252.263 169.326C256.933 162.743 260.602 155.327 263.771 147.411C266.857 157.16 271.61 166.077 278.698 172.16C287.121 180.243 297.795 184.409 309.637 184.409C310.554 184.409 311.472 184.409 312.472 184.409C329.151 183.493 346.58 174.41 358.005 160.827C386.858 131.161 408.207 39.0815 378.269 9.83269C366.761 -0.0835897 350.333 3.83292 340.075 12.8326V12.9159ZM312.222 180.326C300.38 180.993 289.789 177.159 281.45 169.243C273.611 162.493 268.858 152.077 266.106 140.994C271.276 125.995 274.445 109.829 276.947 94.5794C277.698 89.7462 278.448 85.0797 279.115 80.4966C279.115 80.2466 279.115 79.9966 279.199 79.7466L277.281 79.4966H277.114L275.029 79.1633C270.609 109.162 265.606 143.161 248.76 167.16C240.921 178.576 230.581 184.243 221.157 182.243C211.734 180.243 204.729 170.993 202.311 157.577C196.473 120.495 203.979 65.9138 229.497 33.4151C242.256 17.1657 257.933 8.08276 276.03 6.58282C288.705 5.99951 300.714 11.4993 308.886 21.2489C330.068 44.8313 322.479 95.1627 320.728 104.996C320.561 106.162 321.312 107.246 322.396 107.412C323.48 107.662 324.648 106.829 324.814 105.746C326.065 98.5792 330.318 70.4137 324.814 45.6646C328.567 34.3317 334.071 24.0821 342.994 16.0824C351.834 8.24942 365.927 4.74955 375.6 12.9992C401.702 38.5816 384.94 127.495 355.086 158.16C344.328 170.993 327.983 179.493 312.472 180.409L312.222 180.326ZM129.759 172.743C121.587 166.577 115.332 156.577 111.329 145.911C116.333 136.328 119.669 126.495 121.17 118.495C121.336 117.328 120.586 116.245 119.502 116.079C118.334 115.829 117.25 116.662 117.083 117.745C112.83 141.244 89.7306 184.743 55.6231 178.576C41.9467 174.826 31.4392 166.41 24.2674 153.744C9.67373 127.995 11.3416 87.3297 19.4307 58.4975C30.9388 17.9157 51.9538 3.83292 67.6316 7.99943C84.8105 12.4993 97.0692 38.3316 87.3956 79.1633C87.1455 80.2466 87.8126 81.4132 88.9801 81.6632C89.6472 81.8299 90.231 81.6632 90.7313 81.2466C91.0649 80.9966 91.3985 80.5799 91.5653 80.1633C91.732 79.58 91.8154 79.08 91.8988 78.4967C96.0685 59.8307 95.8183 44.1647 92.566 31.9985C102.073 23.1655 112.83 18.8323 122.004 20.3323C139.933 23.3322 147.438 46.5812 142.018 82.5798C141.851 83.7465 142.602 84.7464 143.769 84.9131C143.852 84.9131 144.019 84.9131 144.103 84.9131C145.103 84.9131 146.021 84.1631 146.187 83.1631C148.522 67.9137 148.522 54.7476 146.354 44.248C149.857 28.6653 157.112 14.7492 172.79 8.83273C182.13 6.91614 189.802 8.33275 195.639 13.1659C204.312 20.2489 209.482 34.9984 211.15 56.8309C199.142 84.1631 195.139 116.329 196.723 142.911C189.385 157.577 178.46 169.743 162.032 177.326C150.023 181.326 139.266 179.826 129.926 172.826L129.759 172.743Z" fill="var(--fill-0, black)"/>
</g>
</svg>
