<svg preserveAspectRatio="none" width="100%" height="100%" overflow="visible" style="display: block;" viewBox="0 0 65 31" fill="none" xmlns="http://www.w3.org/2000/svg">
<g id="monogramC 2">
<path id="Vector" d="M31.6435 2.14594C30.6993 1.36684 29.4449 1.12081 27.9477 1.43519C25.4119 2.40564 24.2519 4.68827 23.6719 7.24427C24.0091 8.96649 24.0091 11.1261 23.6449 13.6274C23.618 13.7914 23.4831 13.9145 23.3077 13.9145C23.2943 13.9145 23.2673 13.9145 23.2538 13.9145C23.065 13.8871 22.9436 13.7094 22.9705 13.5317C23.8473 7.62698 22.6468 3.81349 19.7333 3.32143C18.2361 3.0754 16.4962 3.77249 14.972 5.23501C15.498 7.2306 15.552 9.80026 14.8641 12.862C14.8371 12.9577 14.8236 13.0397 14.8101 13.1354C14.7966 13.2174 14.7427 13.272 14.6752 13.3131C14.5943 13.3677 14.4999 13.4087 14.4055 13.3814C14.2301 13.3404 14.1087 13.149 14.1492 12.9713C15.7138 6.27381 13.7311 2.02293 10.9525 1.2985C8.41668 0.615079 5.01764 2.93871 3.14277 9.59524C1.83441 14.3245 1.57813 20.981 3.92509 25.2183C5.08508 27.2959 6.7846 28.6764 8.99668 29.2914C14.4999 30.3029 18.2496 23.168 18.9375 19.3135C18.9645 19.1221 19.1534 18.9991 19.3287 19.0401C19.5175 19.0675 19.6389 19.2451 19.5985 19.4365C19.3692 20.7487 18.8161 22.3479 18.0068 23.9198C18.6543 25.683 19.6659 27.3232 20.9878 28.321C22.4984 29.4555 24.2384 29.7152 26.1807 29.0591C28.8379 27.8153 30.6049 25.8197 31.7919 23.414C31.5356 19.0538 32.183 13.7778 34.1253 9.29453C33.8556 5.7134 33.0328 3.29409 31.6165 2.13227L31.6435 2.14594Z" fill="var(--fill-0, black)"/>
<path id="Vector_2" d="M55.4773 2.62434C54.0475 3.92284 53.1573 5.61772 52.5368 7.47663C53.4271 11.5225 52.7526 16.1424 52.5368 17.3316C52.5099 17.5229 52.321 17.6459 52.1457 17.6049C51.9568 17.5776 51.8354 17.3999 51.8759 17.2086C52.1592 15.5957 53.3866 7.33995 49.9606 3.47178C48.6387 1.87257 46.6964 0.970458 44.6462 1.06614C41.7192 1.32584 39.1834 2.80203 37.1197 5.46737C32.9923 10.8117 31.7784 19.7645 32.7226 25.8333C33.1137 28.034 34.2602 29.5375 35.7709 29.8792C37.2951 30.2209 38.9811 29.2914 40.2355 27.4052C42.9602 23.4687 43.7695 17.9056 44.4843 12.985L44.8215 13.0397H44.8755L45.1587 13.0944C45.1587 13.1354 45.1588 13.1627 45.1453 13.2037C45.0374 13.9418 44.916 14.7209 44.7946 15.5137C44.4034 18.0013 43.8909 20.6393 43.0546 23.0996C43.5132 24.9859 44.2955 26.6944 45.5229 27.7743C46.8718 29.0728 48.5848 29.7015 50.5001 29.5922C53.0089 29.4555 55.6526 28.0613 57.3926 25.9427C62.2214 20.9127 64.9326 6.32848 60.7107 2.13227C59.1596 0.765432 56.8801 1.35317 55.4503 2.63801L55.4773 2.62434Z" fill="var(--fill-0, black)"/>
</g>
</svg>
