<svg width="748" height="696" viewBox="0 0 748 696" fill="none" xmlns="http://www.w3.org/2000/svg">
<g clip-path="url(#clip0_2191_21650)">
<path d="M731.364 387.5C637.804 375.5108 483.48 344.3988 467.976 313.9464C441.4 262.5124 466.48 85.612 474.62 33.1592C476.12 24.8268 476.896 19.4916 477.076 18.1728C477.424 15.8702 476.852 13.5238 475.484 11.6397C474.116 9.7556 472.068 8.485 469.772 8.1018C467.468 7.7516 465.12 8.3126 463.22 9.6662C461.32 11.0198 460.02 13.06 459.596 15.3553C459.596 16.794 458.16 23.8676 456.484 34.7178C443.076 111.7484 409.252 266.0492 368.1892 296.6816C343.766 315.2052 140.718 285.7116 18.4822 262.6924C16.2103 262.298 13.874 262.7936 11.9573 264.0772C10.0405 265.3604 8.6902 267.3332 8.1861 269.586C7.9495 270.72 7.9384 271.8892 8.1534 273.0272C8.3684 274.1648 8.8053 275.2492 9.4391 276.218C10.0728 277.1868 10.8911 278.0208 11.8471 278.6728C12.803 279.3244 13.8779 279.7812 15.0102 280.0168C136.5876 308.5512 336.2236 366.0992 354.3616 399.1896C375.0732 437.016 347.7768 612.176 335.6248 676.56C335.3904 677.696 335.3844 678.872 335.6076 680.012C335.8308 681.152 336.2788 682.236 336.9252 683.204C337.5716 684.168 338.4036 684.996 339.3728 685.636C340.3416 686.276 341.428 686.716 342.5688 686.932H344.2448C346.2796 686.924 348.2528 686.228 349.8404 684.956C351.4284 683.68 352.5368 681.904 352.9848 679.916C372.0804 585.74 415.66 430.42 450.44 414.536C489.828 396.5516 650.252 400.448 729.748 405.124C730.896 405.288 732.064 405.2 733.176 404.872C734.288 404.544 735.316 403.98 736.192 403.216C737.064 402.456 737.764 401.512 738.244 400.456C738.724 399.3996 738.972 398.252 738.968 397.0912C739.192 394.8108 738.524 392.5324 737.104 390.7336C735.688 388.9344 733.632 387.7544 731.364 387.44" stroke="black" stroke-width="16" stroke-miterlimit="10"/>
</g>
<defs>
<clipPath id="clip0_2191_21650">
<rect width="748" height="696" fill="white"/>
</clipPath>
</defs>
</svg>
